<svg width="59" height="42" viewBox="0 0 59 42" fill="none" xmlns="http://www.w3.org/2000/svg">
<path d="M2.778 0C0.674996 0.0226772 0.032251 1.61068 0.00773779 3.30481V25.5223H42.8636V17.7079C42.8636 16.0998 44.1843 14.7715 45.7923 14.7715H51.1763V3.30481C51.0665 1.37209 50.1533 0.0384095 48.3965 0H2.778ZM9.09173 3.25325C9.89998 4.06149 10.3995 5.18565 10.3995 6.41489C10.3995 7.64411 9.89998 8.76641 9.09173 9.57463C8.28349 10.3828 7.15358 10.8881 5.92436 10.8881C4.69513 10.8881 3.57287 10.3828 2.76463 9.57463C2.38551 9.19337 2.38551 8.57752 2.76463 8.19623C3.14657 7.8133 3.76686 7.8133 4.1488 8.19623C4.60546 8.65295 5.22343 8.93318 5.92436 8.93318C6.6253 8.93318 7.25086 8.65284 7.70756 8.19623C8.16419 7.7396 8.44258 7.11587 8.4426 6.41489C8.44261 5.71397 8.16422 5.08837 7.70756 4.63173C7.32845 4.25044 7.32845 3.63454 7.70756 3.25325C8.1714 2.78505 8.67096 2.86459 9.09173 3.25325V3.25325ZM24.5486 4.14107H26.6335C27.551 4.14107 28.3155 4.90558 28.3155 5.8231V7.05642C28.3155 7.1392 28.33 7.12589 28.3728 7.14431C28.4155 7.16416 28.4086 7.17749 28.4663 7.12165L29.3407 6.24914C29.9895 5.60029 31.0728 5.60029 31.7215 6.24914L33.1935 7.72105C33.8422 8.36976 33.8421 9.45315 33.1935 10.1019L32.321 10.9744C32.2632 11.0325 32.2881 11.0328 32.306 11.0756C32.3238 11.1184 32.3045 11.1349 32.3861 11.1349H33.6271C34.5447 11.1349 35.3072 11.8974 35.3072 12.8149V14.8998C35.3072 15.8173 34.5446 16.5818 33.6271 16.5818H32.3861C32.3045 16.5818 32.3237 16.5903 32.3059 16.6336C32.2881 16.6765 32.2635 16.6773 32.321 16.7349L33.1935 17.6074C33.8421 18.2561 33.8421 19.3393 33.1935 19.9881L31.7215 21.4601C31.0727 22.1089 29.9894 22.1089 29.3407 21.4601L28.4663 20.5876C28.4087 20.5286 28.4154 20.5462 28.3727 20.5649C28.3301 20.5848 28.3155 20.5735 28.3155 20.6528V21.8862C28.3155 22.8036 27.551 23.5682 26.6335 23.5682H24.5486C23.6311 23.5682 22.8666 22.8036 22.8666 21.8862V20.6528C22.8666 20.5701 22.8522 20.5834 22.8094 20.5649C22.7667 20.5451 22.7659 20.5318 22.7082 20.5876L21.8357 21.4601C21.1869 22.1089 20.1113 22.1089 19.4625 21.4601L17.9829 19.9871C17.3341 19.3383 17.3342 18.2551 17.9829 17.6063L18.8554 16.7338C18.9134 16.6757 18.8941 16.6754 18.8765 16.6326C18.8587 16.5895 18.8798 16.5811 18.7982 16.5811H17.5572C16.6397 16.5811 15.8752 15.8165 15.8752 14.899V12.8142C15.8752 11.8967 16.6397 11.1341 17.5572 11.1341H18.7982C18.8798 11.1341 18.8587 11.1142 18.8765 11.0748C18.8942 11.032 18.913 11.0312 18.8554 10.9736L17.9829 10.1014C17.3342 9.45263 17.3342 8.36939 17.9829 7.72062L19.4625 6.24854C20.1113 5.59969 21.1869 5.59969 21.8357 6.24854L22.7082 7.12104C22.7658 7.18 22.7667 7.1625 22.8094 7.1438C22.852 7.12395 22.8666 7.13527 22.8666 7.0559V5.82249C22.8666 4.90498 23.6311 4.14055 24.5486 4.14055L24.5486 4.14107ZM15.6441 5.37629V7.46119C15.6441 8.37868 14.8815 9.14313 13.964 9.14313H12.723C12.6414 9.14313 12.6606 9.15169 12.6429 9.19279C12.6251 9.23559 12.6004 9.23637 12.658 9.29391L13.5305 10.1684C14.1791 10.8171 14.1791 11.9004 13.5305 12.5492L12.0585 14.0212C11.4098 14.67 10.3265 14.67 9.67773 14.0212L8.80331 13.1486C8.74575 13.0897 8.75247 13.1073 8.70977 13.126C8.66713 13.1458 8.6525 13.1288 8.6525 13.2121V14.4474C8.6525 15.3648 7.88799 16.1275 6.9705 16.1275H4.88565C4.34578 16.1297 3.90642 15.6936 3.90431 15.1538C3.90627 14.6139 4.34578 14.178 4.88565 14.1801H6.69747V13.2121C6.69749 12.3426 7.25904 11.612 7.95946 11.322C8.65989 11.032 9.57456 11.1539 10.1894 11.7688L10.8672 12.4485L11.9573 11.3583L11.2796 10.6805C10.6647 10.0657 10.5408 9.151 10.8309 8.45056C11.121 7.75015 11.8534 7.18673 12.7229 7.1867H13.689V5.37673C13.687 4.83687 14.1228 4.39749 14.6642 4.3954C15.2055 4.39321 15.6461 4.83386 15.644 5.37673L15.6441 5.37629ZM24.8236 6.09802V7.05642C24.8236 7.92592 24.2601 8.6584 23.5597 8.94841C22.8592 9.23845 21.9446 9.12246 21.3297 8.5074L20.652 7.82962L19.5561 8.91216L20.2415 9.59755C20.8563 10.2124 20.9707 11.1195 20.6806 11.8199C20.3905 12.5204 19.6677 13.0819 18.7981 13.0819H17.8302V14.6264H18.7981C19.6676 14.6265 20.3905 15.1899 20.6806 15.8903C20.9707 16.5907 20.8563 17.5034 20.2415 18.1183L19.5618 18.798L20.652 19.8863L21.3297 19.2085C21.9446 18.5937 22.8593 18.4717 23.5597 18.7617C24.2601 19.0517 24.8236 19.7823 24.8236 20.6519V21.6179H26.3605V20.6519C26.3605 19.7823 26.922 19.0517 27.6225 18.7617C28.3229 18.4717 29.2376 18.5936 29.8524 19.2085L30.5302 19.8863L31.6203 18.798L30.9426 18.1183C30.3277 17.5034 30.2038 16.5907 30.4939 15.8903C30.784 15.1899 31.5164 14.6265 32.3859 14.6264H33.352V13.0819H32.3859C31.5164 13.0819 30.784 12.5204 30.4939 11.8199C30.2038 11.1195 30.3278 10.2124 30.9426 9.59755L31.6203 8.91216L30.5378 7.82962L29.8524 8.5074C29.2375 9.12232 28.3229 9.23845 27.6225 8.94841C26.922 8.6584 26.3605 7.92592 26.3605 7.05642V6.09802H24.8236ZM25.5872 9.3799C28.0457 9.3799 30.0625 11.3966 30.0624 13.8551C30.0624 16.3135 28.0457 18.3284 25.5872 18.3284C23.1288 18.3284 21.1217 16.3135 21.1216 13.8551C21.1216 11.3966 23.1288 9.3799 25.5872 9.3799ZM25.5872 11.3369C24.1853 11.3369 23.069 12.4531 23.069 13.8551C23.069 15.257 24.1854 16.3733 25.5872 16.3733C26.9891 16.3733 28.1055 15.257 28.1055 13.8551C28.1055 12.4531 26.9892 11.3369 25.5872 11.3369ZM45.7923 16.7266C45.2409 16.7266 44.811 17.1564 44.811 17.7079V35.2992H58.5V17.7079C58.5 17.1564 58.0778 16.7266 57.5263 16.7266H45.7923ZM53.095 24.2965L52.1137 28.2066C51.9814 28.7283 51.4523 29.0449 50.93 28.9149C50.4091 28.7819 50.0934 28.2529 50.2236 27.7311L51.1973 23.8192C51.36 23.2228 51.9126 23.0297 52.4088 23.1361C52.9051 23.2424 53.2247 23.7724 53.095 24.2965ZM48.9234 24.3461C49.3025 24.7274 49.3025 25.3433 48.9234 25.7245L48.6352 26.0128L48.9234 26.3009C49.3025 26.6822 49.3025 27.2981 48.9234 27.6794C48.5422 28.0585 47.9263 28.0585 47.545 27.6794L46.5637 26.7057C46.1795 26.3235 46.1795 25.7018 46.5637 25.3196L47.545 24.3459C48.0825 23.9235 48.5364 23.9967 48.9234 24.3459V24.3461ZM55.7718 24.3461L56.7455 25.3199C57.1296 25.702 57.1296 26.3237 56.7455 26.7059L55.7718 27.6796C55.3896 28.0638 54.7679 28.0638 54.3857 27.6796C54.0066 27.2983 54.0066 26.6824 54.3857 26.3011L54.6759 26.0129L54.3857 25.7248C54.0066 25.3435 54.0066 24.7276 54.3857 24.3463C54.9217 23.9563 55.1908 23.8668 55.7718 24.3463V24.3461ZM0.00773779 27.4773C-0.0847363 29.7276 0.640645 31.1649 2.778 31.4466H20.3618L19.8195 35.2286H14.9301C12.6174 35.2371 11.5531 37.1189 10.831 38.3884C10.0933 39.6165 11.0371 41.2751 12.4691 41.2751H38.713C40.145 41.2751 41.0812 39.6165 40.3435 38.3884C39.4874 36.7084 38.753 35.3222 36.2521 35.2286H31.3569L30.8185 31.4465H42.8636V27.4772L0.00773779 27.4773ZM44.811 37.2563V40.6833C44.811 41.2348 45.2409 41.657 45.7923 41.657H57.5263C58.0778 41.657 58.5 41.2348 58.5 40.6833V37.2563H44.811ZM51.6536 38.2357C52.1942 38.2336 52.6339 38.6707 52.6349 39.2113C52.6371 39.7542 52.1965 40.1948 51.6536 40.1927C51.113 40.1916 50.6759 39.7519 50.678 39.2113C50.6791 38.6729 51.1152 38.2367 51.6536 38.2357Z" fill="white"/>
</svg>
