<svg width="172" height="35" viewBox="0 0 172 35" fill="none" xmlns="http://www.w3.org/2000/svg">
<path d="M12.625 33.505C14.125 33.505 15.445 33.1 16.585 32.29C17.755 31.48 18.34 30.265 18.34 28.645C18.34 26.995 17.71 25.735 16.45 24.865C15.22 23.995 13.45 23.245 11.14 22.615C8.86 21.955 7.195 21.385 6.145 20.905C5.125 20.425 4.15 19.795 3.22 19.015C1.36 17.455 0.43 15.04 0.43 11.77C0.43 9.1 1.375 6.805 3.265 4.885C5.185 2.965 7.795 2.005 11.095 2.005C12.685 2.005 14.335 2.245 16.045 2.725C17.785 3.175 18.865 3.4 19.285 3.4C19.705 3.4 20.08 3.1 20.41 2.5H20.905L21.22 11.59H20.5C19.06 8.98 17.545 6.895 15.955 5.335C14.395 3.745 12.685 2.95 10.825 2.95C8.995 2.95 7.57 3.385 6.55 4.255C5.53 5.095 5.02 6.235 5.02 7.675C5.02 9.085 5.62 10.18 6.82 10.96C8.05 11.71 9.55 12.325 11.32 12.805C13.09 13.285 14.245 13.615 14.785 13.795C15.355 13.975 16.045 14.23 16.855 14.56C17.695 14.86 18.37 15.19 18.88 15.55C19.42 15.88 19.975 16.315 20.545 16.855C21.145 17.365 21.61 17.935 21.94 18.565C22.75 20.005 23.155 21.715 23.155 23.695C23.155 26.935 22.135 29.545 20.095 31.525C18.085 33.475 15.43 34.45 12.13 34.45C10.42 34.45 8.455 34.225 6.235 33.775C4.045 33.325 2.83 33.1 2.59 33.1C2.17 33.1 1.765 33.55 1.375 34.45H0.745L0.295 23.74H1.06C2.38 26.35 4.06 28.63 6.1 30.58C8.17 32.53 10.345 33.505 12.625 33.505ZM36.2324 23.425H37.5374V19.96C37.5374 17.11 37.3724 15.205 37.0424 14.245C36.7424 13.255 36.1424 12.76 35.2424 12.76C34.7024 12.76 34.2074 12.91 33.7574 13.21C33.3374 13.48 33.1274 13.87 33.1274 14.38C33.1274 14.86 33.2174 15.355 33.3974 15.865H34.5224C34.7624 16.495 34.8824 17.26 34.8824 18.16C34.8824 19.03 34.5074 19.795 33.7574 20.455C33.0074 21.085 32.0624 21.4 30.9224 21.4C28.3424 21.4 27.0524 20.155 27.0524 17.665C27.0524 13.975 30.1874 12.13 36.4574 12.13C40.0274 12.13 42.4874 12.745 43.8374 13.975C45.2174 15.175 45.9074 17.395 45.9074 20.635V29.77C45.9074 31.33 46.3424 32.11 47.2124 32.11C48.2324 32.11 48.8324 30.565 49.0124 27.475L49.6874 27.52C49.5674 30.16 49.0724 31.975 48.2024 32.965C47.3324 33.955 45.9074 34.45 43.9274 34.45C40.3274 34.45 38.2574 33.34 37.7174 31.12C37.3274 32.26 36.7424 33.1 35.9624 33.64C35.1824 34.18 34.0424 34.45 32.5424 34.45C28.1024 34.45 25.8824 32.635 25.8824 29.005C25.8824 26.875 26.7224 25.42 28.4024 24.64C30.1124 23.83 32.7224 23.425 36.2324 23.425ZM34.4324 28.96C34.4324 30.52 34.5074 31.525 34.6574 31.975C34.8374 32.425 35.1524 32.65 35.6024 32.65C36.0824 32.65 36.5174 32.275 36.9074 31.525C37.3274 30.745 37.5374 29.68 37.5374 28.33V24.145H37.2224C35.3624 24.145 34.4324 25.51 34.4324 28.24V28.96ZM46.999 13.39V12.58H60.454V13.39H57.619L63.019 28.33L67.879 13.39H64.864V12.58H70.939V13.39H68.959L62.299 34H57.169L48.844 13.39H46.999ZM82.0916 34.45C78.2216 34.45 75.3116 33.46 73.3616 31.48C71.4416 29.47 70.4816 26.695 70.4816 23.155C70.4816 19.585 71.5616 16.855 73.7216 14.965C75.9116 13.075 78.6866 12.13 82.0466 12.13C88.8566 12.13 92.1266 15.55 91.8566 22.39H79.1666V24.145C79.1666 27.085 79.5416 29.305 80.2916 30.805C81.0416 32.305 82.3466 33.055 84.2066 33.055C87.6866 33.055 89.9666 31.195 91.0466 27.475L91.8566 27.61C91.2866 29.77 90.2516 31.45 88.7516 32.65C87.2816 33.85 85.0616 34.45 82.0916 34.45ZM79.2116 21.49H83.8466V19.285C83.8466 16.855 83.6966 15.205 83.3966 14.335C83.1266 13.435 82.5566 12.985 81.6866 12.985C80.8466 12.985 80.2166 13.465 79.7966 14.425C79.4066 15.355 79.2116 16.975 79.2116 19.285V21.49ZM93.5498 12.58H104.395V16.72C104.875 15.34 105.61 14.23 106.6 13.39C107.59 12.55 109.09 12.13 111.1 12.13C115.75 12.13 118.075 14.635 118.075 19.645V33.19H120.595V34H107.86V33.19H109.705V18.565C109.705 16.765 109.585 15.61 109.345 15.1C109.105 14.56 108.67 14.29 108.04 14.29C107.08 14.29 106.225 14.92 105.475 16.18C104.755 17.44 104.395 18.97 104.395 20.77V33.19H106.33V34H93.5498V33.19H96.0248V13.39H93.5498V12.58ZM135.904 34V33.19H137.974L132.889 22.75L132.034 22.975V33.19H134.104V34H121.189V33.19H123.664V1.06H121.009V0.249997H132.034V22.075L132.754 21.805L142.879 13.39H138.649V12.58H147.514V13.39H144.364L139.009 17.935L146.794 33.19H148.414V34H135.904ZM162.487 25.135V21.31C162.487 18.4 162.322 16.285 161.992 14.965C161.692 13.615 160.972 12.94 159.832 12.94C159.172 12.94 158.632 13.135 158.212 13.525C157.822 13.885 157.537 14.5 157.357 15.37C157.087 16.72 156.952 18.775 156.952 21.535V25.045C156.952 28.315 157.042 30.28 157.222 30.94C157.432 31.6 157.642 32.14 157.852 32.56C158.182 33.28 158.827 33.64 159.787 33.64C160.957 33.64 161.722 32.965 162.082 31.615C162.352 30.655 162.487 28.495 162.487 25.135ZM159.697 34.45C155.947 34.45 153.112 33.49 151.192 31.57C149.272 29.65 148.312 26.905 148.312 23.335C148.312 19.735 149.332 16.975 151.372 15.055C153.442 13.105 156.337 12.13 160.057 12.13C163.777 12.13 166.552 13.03 168.382 14.83C170.212 16.6 171.127 19.315 171.127 22.975C171.127 30.625 167.317 34.45 159.697 34.45Z" fill="white"/>
</svg>
