<?xml version="1.0" encoding="iso-8859-1"?>
<!-- Generator: Adobe Illustrator 19.0.0, SVG Export Plug-In . SVG Version: 6.00 Build 0)  -->
<svg version="1.1" id="Layer_1" xmlns="http://www.w3.org/2000/svg" xmlns:xlink="http://www.w3.org/1999/xlink" x="0px" y="0px"
	 viewBox="0 0 491.52 491.52" style="enable-background:new 0 0 491.52 491.52;" xml:space="preserve">
<g>
	<g>
		<path d="M491.52,285.155v-78.79l-57.55-9.59c-4.49-17.295-11.37-33.86-20.53-49.405l33.95-47.53l-55.71-55.715l-47.52,33.95
			c-15.54-9.145-32.11-16.025-49.41-20.525L285.15,0h-78.78l-9.6,57.55c-17.3,4.5-33.87,11.38-49.41,20.525l-47.53-33.95
			L44.13,99.84l33.95,47.53c-9.16,15.545-16.04,32.11-20.53,49.405L0,206.365v78.79l57.55,9.59
			c4.49,17.31,11.38,33.875,20.53,49.405l-33.95,47.53l55.7,55.715l47.53-33.95c15.54,9.145,32.11,16.025,49.41,20.525l9.6,57.55
			h78.78l9.6-57.55c17.3-4.5,33.87-11.38,49.41-20.525l47.52,33.95l55.71-55.715l-33.95-47.53c9.16-15.545,16.04-32.11,20.53-49.405
			L491.52,285.155z M415.6,283.545c-4.35,19.65-12.11,38.335-23.07,55.54l-3.71,5.825l31.83,44.56l-31.19,31.175l-44.54-31.825
			l-5.83,3.715c-17.19,10.95-35.88,18.71-55.54,23.065l-6.75,1.5l-8.99,53.94h-44.1l-8.99-53.94l-6.75-1.5
			c-19.66-4.355-38.35-12.115-55.54-23.065l-5.83-3.715l-44.55,31.825L70.87,389.47l31.83-44.56l-3.72-5.83
			c-10.95-17.175-18.71-35.86-23.06-55.535l-1.5-6.75l-53.94-8.99v-44.09l53.94-8.99l1.5-6.75c4.35-19.65,12.11-38.335,23.07-55.54
			l3.71-5.825l-31.83-44.56l31.18-31.175L146.6,102.7l5.83-3.715c17.19-10.95,35.88-18.71,55.54-23.065l6.75-1.5l8.99-53.94h44.1
			l8.99,53.94l6.75,1.5c19.66,4.355,38.35,12.115,55.54,23.065l5.83,3.715l44.54-31.825l31.19,31.175l-31.83,44.56l3.71,5.825
			c10.96,17.205,18.72,35.89,23.07,55.54l1.5,6.75l53.94,8.99v44.09l-53.94,8.99L415.6,283.545z"/>
	</g>
</g>
<g>
	<g>
		<path d="M245.76,102.4c-79.05,0-143.36,64.31-143.36,143.36s64.31,143.36,143.36,143.36s143.36-64.31,143.36-143.36
			S324.81,102.4,245.76,102.4z M196.008,133.5c-5.611,8.096-10.547,17.588-14.728,28.174c-4.934-3.056-9.701-6.408-14.209-10.181
			C175.774,144.216,185.515,138.169,196.008,133.5z M152.534,165.926c6.944,5.97,14.368,11.192,22.187,15.672
			c-4.431,16.361-7.188,34.537-7.914,53.922h-43.408C125.598,209.059,136.189,184.986,152.534,165.926z M123.399,256h43.408
			c0.722,19.275,3.453,37.352,7.841,53.641c-7.854,4.506-15.306,9.764-22.276,15.774C136.114,306.384,125.59,282.376,123.399,256z
			 M166.891,339.864c4.531-3.806,9.319-7.198,14.281-10.279c4.203,10.693,9.177,20.271,14.836,28.435
			C185.441,353.318,175.642,347.209,166.891,339.864z M235.52,366.563c-14.468-5.584-27.251-22.659-36.068-46.398
			c11.421-4.644,23.555-7.499,36.068-8.527V366.563z M235.52,291.158c-14.574,1.025-28.709,4.188-42.05,9.412
			c-3.367-13.69-5.543-28.739-6.203-44.57h48.253V291.158z M235.52,235.52h-48.253c0.665-15.946,2.866-31.101,6.274-44.87
			c13.32,5.207,27.431,8.364,41.979,9.387V235.52z M235.52,179.557c-12.475-1.024-24.573-3.871-35.964-8.49
			c8.814-23.591,21.553-40.548,35.964-46.11V179.557z M368.121,235.52h-43.408c-0.726-19.383-3.482-37.558-7.913-53.918
			c7.819-4.481,15.244-9.701,22.189-15.672C355.333,184.989,365.923,209.061,368.121,235.52z M324.455,151.498
			c-4.508,3.774-9.281,7.119-14.215,10.176c-4.182-10.586-9.117-20.078-14.728-28.174
			C306.007,138.17,315.751,144.219,324.455,151.498z M256,124.957c14.41,5.562,27.15,22.519,35.964,46.109
			c-11.389,4.619-23.486,7.466-35.964,8.49V124.957z M256,200.036c14.551-1.023,28.66-4.18,41.979-9.387
			c3.408,13.769,5.609,28.925,6.274,44.871H256V200.036z M256,256h48.253c-0.66,15.831-2.836,30.88-6.203,44.571
			c-13.339-5.223-27.474-8.387-42.05-9.412V256z M256,366.563v-54.924c12.514,1.027,24.648,3.884,36.067,8.528
			C283.25,343.904,270.468,360.979,256,366.563z M295.512,358.02c5.658-8.164,10.632-17.742,14.836-28.435
			c4.963,3.082,9.756,6.466,14.286,10.274C315.882,347.207,306.082,353.317,295.512,358.02z M339.151,325.412
			c-6.971-6.011-14.424-11.268-22.277-15.774c4.387-16.288,7.117-34.364,7.839-53.638h43.408
			C365.93,282.374,355.407,306.381,339.151,325.412z"/>
	</g>
</g>
<g>
</g>
<g>
</g>
<g>
</g>
<g>
</g>
<g>
</g>
<g>
</g>
<g>
</g>
<g>
</g>
<g>
</g>
<g>
</g>
<g>
</g>
<g>
</g>
<g>
</g>
<g>
</g>
<g>
</g>
</svg>
